PathFileType	4	(X/Y/Z)	C:/Users/opensim2020/Desktop/walking_exp_matlab/subject01_walking05_straight_02.trc	
DataRate	CameraRate	NumFrames	NumMarkers	Units	OrigDataRate	OrigDataStartFrame	OrigNumFrames	
100.00	100.00	5	43	mm	100.00	1578	205	
Frame#	Time	LFHD			RFHD			LBHD			RBHD			C7			T10			CLAV			STRN			RBAK			LSHO			LUPA			LELB			LFRM			LWRA			LWRB			LFIN			RSHO			RUPA			RELB			RFRM			RWRA			RWRB			RFIN			LASI			RASI			LPSI			RPSI			LTHI			LKNE			LTIB			LANK			LHEE			LTOE			RTHI			RKNE			RTIB			RANK			RHEE			RTOE			*39			*40			*41			*42			
		X1	Y1	Z1	X2	Y2	Z2	X3	Y3	Z3	X4	Y4	Z4	X5	Y5	Z5	X6	Y6	Z6	X7	Y7	Z7	X8	Y8	Z8	X9	Y9	Z9	X10	Y10	Z10	X11	Y11	Z11	X12	Y12	Z12	X13	Y13	Z13	X14	Y14	Z14	X15	Y15	Z15	X16	Y16	Z16	X17	Y17	Z17	X18	Y18	Z18	X19	Y19	Z19	X20	Y20	Z20	X21	Y21	Z21	X22	Y22	Z22	X23	Y23	Z23	X24	Y24	Z24	X25	Y25	Z25	X26	Y26	Z26	X27	Y27	Z27	X28	Y28	Z28	X29	Y29	Z29	X30	Y30	Z30	X31	Y31	Z31	X32	Y32	Z32	X33	Y33	Z33	X34	Y34	Z34	X35	Y35	Z35	X36	Y36	Z36	X37	Y37	Z37	X38	Y38	Z38	X39	Y39	Z39	X40	Y40	Z40	X41	Y41	Z41	X42	Y42	Z42	X43	Y43	Z43	

103	1.020	1498.28162	100.65398	1655.33447	1386.52673	78.05279	1663.25708	1480.38196	214.41621	1605.79187	1361.03772	193.58543	1612.62793	1432.24268	248.22041	1418.30103	1419.11780	282.99686	1124.85681	1442.47644	103.77618	1348.88806	1443.87756	61.86342	1195.71301	1344.70557	296.31070	1226.52380	1598.98352	181.76308	1375.74670	1665.14282	252.17287	1194.09949	1646.15271	295.27472	1052.83276	1672.19141	300.44427	941.05157	1664.58740	262.08728	804.74115	1676.62524	320.10309	820.03760	1686.14465	302.61261	735.49957	1286.89819	156.11063	1383.94543	1168.54504	204.11124	1193.63916	1144.99487	196.19406	1069.78284	1104.31763	134.81372	967.62500	1112.64233	19.56876	885.30737	1075.38599	62.68595	873.28479	1066.54443	0.10085	817.40820	1522.98792	104.06550	919.00757	1304.94165	115.09184	919.91064	1484.11389	292.54059	928.79437	1341.33667	298.47058	940.23315	1586.11230	58.36045	601.99164	1561.22937	28.14643	474.88965	1570.97156	25.53779	286.42499	1519.37720	-27.24595	69.60571	1460.43188	1.87613	31.02760	1529.55151	-175.24393	70.53761	1258.74902	233.58174	597.20123	1285.34094	264.43045	438.39301	1283.04163	372.78629	297.48123	1335.13733	469.23203	112.71008	1384.97827	528.15448	95.55463	1345.55908	348.35519	35.13051	1408.26990	93.55534	1696.15967	-3101.77295	1973.08679	1023.40649	-3140.59253	2012.55396	1022.07300			 
104	1.030	1500.26013	90.41660	1654.55896	1388.43433	68.15147	1662.46436	1482.67407	204.28207	1605.11743	1363.20947	183.80679	1612.01270	1434.50781	238.31836	1417.27136	1420.84448	271.85013	1123.71155	1444.24390	93.53374	1348.22949	1445.27881	51.06802	1195.35742	1346.75745	286.08704	1225.56970	1600.99731	171.28818	1374.66724	1667.04700	241.16541	1192.75793	1647.90649	284.21896	1051.54761	1673.70386	289.25726	939.73224	1665.71948	250.86092	803.44788	1678.15222	308.84854	818.75592	1687.33179	291.19812	734.12189	1288.83679	146.44632	1383.38477	1170.53625	194.85471	1193.25879	1146.99182	187.14285	1069.40417	1106.12207	126.11917	967.06335	1114.19043	11.18745	884.16742	1076.86597	54.52443	872.39490	1068.09827	-7.98450	816.21881	1523.97583	92.27347	918.38782	1305.88794	104.03946	919.16693	1485.67041	281.00037	928.03125	1342.81836	287.29034	939.61908	1583.41931	45.65724	601.69067	1560.27563	16.97206	473.96567	1569.64636	18.39518	284.43637	1517.13440	-29.35894	67.75790	1459.29321	0.45199	31.42431	1527.03772	-178.53448	63.45812	1259.32849	222.79453	596.38751	1285.00586	254.19177	437.39432	1282.69641	365.88235	298.82809	1334.28931	466.58417	116.29881	1383.96411	525.54706	100.78684	1345.32178	347.88144	35.13072	1410.22388	83.82767	1695.10388	-3102.01221	1973.12781	1023.31610	-3140.62964	2012.60071	1022.02966			 
105	1.040	1502.25781	80.06370	1654.17407	1390.20654	58.26525	1662.05139	1485.03625	194.12054	1604.69336	1365.52393	174.06946	1611.57898	1437.15527	228.63899	1416.70593	1422.71924	260.66055	1122.64783	1446.15051	83.34743	1347.73779	1446.69189	40.22909	1195.22644	1349.08643	275.74588	1224.74048	1603.26099	160.74123	1373.73718	1669.07861	230.02594	1191.46594	1649.78967	272.93851	1050.22693	1675.39893	277.74326	938.31842	1667.10962	239.14647	802.17963	1679.75659	297.09656	817.37549	1688.81250	279.29190	732.79486	1290.92456	136.93997	1382.92310	1172.64734	185.67357	1192.89478	1149.12158	178.19551	1068.97681	1108.00525	117.62085	966.31311	1115.85889	2.94369	882.98383	1078.64929	46.42418	871.42993	1069.86255	-15.77485	814.85907	1524.80603	80.57697	917.89093	1306.92871	92.78784	918.46429	1487.35437	269.58844	927.37494	1344.19653	276.09576	939.00739	1580.76587	33.28008	601.11462	1560.16443	6.59914	472.38416	1567.40906	11.40585	282.93353	1516.83545	-34.19610	68.23662	1459.47400	-2.28158	33.20723	1525.85400	-183.41570	57.33838	1259.98792	211.73277	595.68933	1285.08813	243.24930	436.45001	1282.61304	358.48813	300.56662	1333.32776	463.33652	120.36739	1382.84961	522.45605	106.60357	1345.13953	347.47992	35.13907	1412.13062	73.64998	1694.78174	-3101.73755	1973.23218	1023.76727	-3140.62646	2012.53394	1022.03503			 
106	1.050	1504.26575	69.63629	1654.46277	1392.02271	48.32937	1662.14502	1487.53015	183.76398	1604.82251	1367.97900	164.29602	1611.69360	1439.82068	218.68668	1416.43896	1424.42310	249.60463	1122.25476	1448.05408	73.10509	1347.70337	1448.19006	29.50940	1195.51880	1351.81897	265.46136	1224.22937	1605.58118	150.09482	1372.95825	1671.19470	218.59988	1190.19312	1651.86658	261.30573	1048.90295	1677.31152	265.79538	936.95020	1668.65869	226.92902	800.90137	1681.30444	284.93005	815.93561	1690.68958	266.93369	731.69250	1292.97986	127.61376	1382.84387	1174.74927	176.55629	1192.57043	1151.42737	169.33380	1068.56140	1110.05737	109.35970	965.64130	1117.69495	-4.79033	881.62506	1080.39368	38.78993	870.33710	1071.64380	-23.10553	813.41809	1525.68079	69.01478	917.59772	1307.95752	81.44531	917.86798	1488.93713	258.02402	926.99615	1345.44653	264.92169	938.47473	1579.28503	21.34827	600.96826	1560.69031	-3.42003	471.44446	1565.46460	3.27252	283.16290	1518.08411	-39.90919	68.24872	1461.19543	-4.72465	35.23338	1524.33618	-188.12596	52.39292	1260.77490	199.87247	594.82379	1285.28674	231.57011	435.38559	1282.73352	350.27136	302.88162	1332.35229	459.40720	124.71514	1381.85828	518.49713	113.30964	1344.88770	346.97467	34.97099	1413.99719	64.01147	1694.50378	-3101.87280	1973.09021	1023.46686	-3140.67310	2012.51367	1021.97284			 
107	1.060	1506.13330	59.08110	1654.98706	1393.94080	38.26588	1662.54700	1490.08032	173.29266	1605.47229	1370.38855	154.28729	1612.16589	1442.58606	208.33331	1416.64099	1425.99890	238.67654	1122.46741	1449.98645	62.89974	1348.08435	1449.64648	18.90784	1195.94177	1354.69031	255.25885	1223.98328	1607.89978	139.45247	1372.41443	1673.37341	207.00908	1189.07056	1654.03979	249.23773	1047.65869	1679.38342	253.41618	935.65216	1670.49854	214.13844	799.83765	1683.44543	272.15897	814.70276	1692.72534	253.76715	730.55499	1294.91199	118.21739	1382.89844	1177.04773	167.60883	1192.48962	1154.11157	160.63080	1068.34424	1112.29919	101.40136	965.10327	1119.50134	-12.41488	880.34576	1082.30359	31.59177	869.39618	1073.64258	-30.06333	811.94580	1526.41504	57.51865	917.41302	1309.02124	70.20104	917.59607	1490.25537	246.49989	927.24646	1346.46643	253.67357	937.96320	1580.36682	10.57441	601.70111	1561.88562	-13.18336	472.32892	1566.39966	-5.53550	284.48566	1519.31360	-43.94977	67.52575	1462.75427	-6.89104	36.21489	1522.63245	-191.72949	47.18221	1261.57837	187.10574	594.04865	1285.27039	218.68439	434.63519	1282.98975	341.29773	305.57977	1331.72620	454.59662	129.78209	1381.48267	513.32916	120.85709	1344.69910	346.42480	34.88339	1415.92847	53.98849	1694.97717	-3101.93384	1973.08643	1023.28406	-3140.63574	2012.55273	1022.05774			 
